<!-- Generator: Adobe Illustrator 19.1.0, SVG Export Plug-In  -->
<svg version="1.1"
	 xmlns="http://www.w3.org/2000/svg" xmlns:xlink="http://www.w3.org/1999/xlink" xmlns:a="http://ns.adobe.com/AdobeSVGViewerExtensions/3.0/"
	 x="0px" y="0px" width="480px" height="480px" viewBox="0 0 480 480" style="enable-background:new 0 0 480 480;"
	 xml:space="preserve">
<style type="text/css">
	.st0{fill:#00ADEA;}
	.st1{fill:url(#SVGID_1_);}
	.st2{fill:#F0D4A8;}
	.st3{fill:#E8A752;}
	.st4{fill:#E2BF8D;}
	.st5{fill:#5ECC36;}
	.st6{fill:#398919;}
	.st7{fill:#E0AD69;}
	.st8{fill:#80E7FF;}
	.st9{fill:#DD9640;}
	.st10{fill:#3FA01C;}
	.st11{fill:#61D0E2;}
	.st12{fill:#F9F9F9;}
	.st13{fill:#F85000;}
	.st14{fill:#D33C00;}
	.st15{fill:#B53300;}
	.st16{fill:#C18946;}
	.st17{fill:#634525;}
	.st18{fill:#8E6335;}
	.st19{fill:#51C123;}
	.st20{fill:#397A17;}
	.st21{fill:#7C562F;}
	.st22{fill:none;}
	.st23{fill:url(#SVGID_2_);}
</style>
<defs>
</defs>
<polygon class="st0" points="2.8,206.6 125.2,274.9 140.5,266.4 2.8,189.6 "/>
<linearGradient id="SVGID_1_" gradientUnits="userSpaceOnUse" x1="26.7771" y1="189.5076" x2="266.7589" y2="189.5076">
	<stop  offset="0" style="stop-color:#62D4F1"/>
	<stop  offset="1" style="stop-color:#80E7FF"/>
</linearGradient>
<polygon class="st1" points="278.2,189.5 140.5,112.6 2.8,189.6 140.5,266.4 "/>
<polygon class="st2" points="155.8,257.7 293.5,181 324.1,198.1 186.3,275 "/>
<polygon class="st3" points="217,326.1 186.3,275 155.8,257.7 125.2,274.9 125.2,292 217,343.2 "/>
<polygon class="st4" points="354.7,249.3 217,326.1 186.3,275 324.1,198.1 "/>
<polygon class="st5" points="477.1,266.4 400.7,223.6 125.2,377.4 201.7,420 "/>
<polygon class="st6" points="125.2,377.4 125.2,394.4 201.7,437.1 201.7,420 "/>
<polygon class="st7" points="247.8,309.2 232.5,283.6 217.3,292.2 "/>
<polygon class="st7" points="293.5,283.5 278.2,257.9 262.9,266.4 "/>
<polygon class="st8" points="293.5,283.5 278.2,292 262.9,266.4 "/>
<polygon class="st7" points="339.4,257.9 324.1,232.2 308.8,240.8 "/>
<polygon class="st8" points="339.4,257.9 324.1,266.4 308.8,240.8 "/>
<polygon class="st8" points="324.1,266.4 362.3,287.7 377.6,279.2 339.4,257.9 "/>
<polygon class="st8" points="278.2,292 354.7,334.7 370,326.1 293.5,283.5 "/>
<polygon class="st8" points="293.5,334.7 247.6,309.1 217.3,292.2 232.3,317.6 262.9,334.7 155.8,394.4 171.1,403 278.2,343.2 
	278.2,343.2 "/>
<polygon class="st8" points="431.2,240.8 446.5,249.3 370,292 354.7,283.5 "/>
<polygon class="st9" points="232.3,283.4 232.3,300.5 217,292 "/>
<polygon class="st9" points="278.2,257.9 278.2,275 262.9,266.4 "/>
<polygon class="st9" points="324.1,232.2 324.1,249.3 308.8,240.8 "/>
<g>
	<polygon class="st10" points="477.1,266.4 201.7,420 201.7,437.1 477.1,283.5 	"/>
</g>
<polygon class="st11" points="354.7,334.7 354.7,343.2 370,334.7 370,326.1 "/>
<polygon class="st0" points="155.8,394.4 155.8,403 171.1,411.5 171.1,403 "/>
<polygon class="st12" points="265.1,213.8 262.9,215.2 262.9,87.1 265.2,88.4 "/>
<polygon class="st13" points="262.9,87.1 262.9,104.2 285.8,117 285.8,99.9 "/>
<polygon class="st14" points="265.2,88.4 262.9,87.1 262.9,104.2 265.2,105.5 "/>
<path class="st15" d="M293.6,104.2"/>
<polygon class="st16" points="125.2,274.9 125.2,292 2.8,223.7 2.8,206.6 2.8,206.6 "/>
<polygon class="st17" points="163.4,381.6 155.7,377.4 155.7,351.7 163.4,356 "/>
<polygon class="st18" points="171,377.4 163.4,381.6 163.4,356 171,351.7 "/>
<polygon class="st19" points="140.4,351.8 163.4,364.6 186.3,351.8 163.4,321.9 "/>
<polygon class="st10" points="163.4,356 163.4,321.8 181.8,345.7 "/>
<polygon class="st6" points="140.4,351.8 163.4,364.6 163.4,321.9 "/>
<polygon class="st20" points="163.5,356 163.5,321.8 145,345.7 "/>
<polygon class="st19" points="140.4,334.6 163.4,347.4 186.3,334.6 163.4,304.7 "/>
<polygon class="st6" points="140.4,334.6 163.4,347.4 163.4,304.7 "/>
<polygon class="st10" points="163.4,338.9 163.4,304.7 181.8,328.7 "/>
<polygon class="st20" points="163.5,339.1 163.5,304.8 145,328.8 "/>
<polygon class="st19" points="140.4,317.6 163.4,330.4 186.3,317.6 163.4,287.7 "/>
<polygon class="st6" points="140.4,317.6 163.4,330.4 163.4,287.7 "/>
<polygon class="st11" points="224.6,304.8 232.3,300.5 217,292 "/>
<polygon class="st11" points="270.5,279.2 278.2,274.9 262.9,266.4 "/>
<polygon class="st11" points="316.4,253.6 324.1,249.3 308.8,240.8 "/>
<polygon class="st21" points="171,360.3 163.4,364.6 163.4,373.1 171,368.8 "/>
<polygon class="st17" points="393,253.5 385.4,249.2 385.4,223.6 393,227.9 "/>
<polygon class="st18" points="400.7,249.2 393,253.5 393,227.9 400.7,223.6 "/>
<polygon class="st19" points="370.1,223.7 393,236.5 416,223.7 393,193.8 "/>
<polygon class="st10" points="393,227.9 393,193.7 411.4,217.6 "/>
<polygon class="st6" points="370.1,223.7 393,236.5 393,193.8 "/>
<polygon class="st20" points="393.1,227.9 393.1,193.7 374.6,217.6 "/>
<polygon class="st19" points="370.1,206.5 393,219.3 416,206.5 393,176.6 "/>
<polygon class="st6" points="370.1,206.5 393,219.3 393,176.6 "/>
<polygon class="st10" points="393,210.8 393,176.6 411.4,200.5 "/>
<polygon class="st20" points="393.1,211 393.1,176.7 374.6,200.7 "/>
<polygon class="st19" points="370.1,189.5 393,202.3 416,189.5 393,159.6 "/>
<polygon class="st6" points="370.1,189.5 393,202.3 393,159.6 "/>
<polygon class="st21" points="400.7,232.2 393,236.5 393,245 400.7,240.7 "/>
<polygon class="st17" points="209.3,407.1 201.7,403 201.6,377.3 209.3,381.5 "/>
<polygon class="st18" points="216.9,402.9 209.3,407.1 209.3,381.5 216.9,377.3 "/>
<polygon class="st19" points="186.3,377.3 209.3,390.1 232.2,377.3 209.3,347.4 "/>
<polygon class="st10" points="209.3,381.5 209.3,347.3 227.7,371.2 "/>
<polygon class="st6" points="186.3,377.3 209.3,390.1 209.3,347.4 "/>
<polygon class="st20" points="209.3,381.5 209.3,347.3 190.9,371.2 "/>
<polygon class="st19" points="186.3,360.1 209.3,372.9 232.2,360.1 209.3,330.2 "/>
<polygon class="st6" points="186.3,360.1 209.3,372.9 209.3,330.2 "/>
<polygon class="st10" points="209.3,364.5 209.3,330.2 227.7,354.2 "/>
<polygon class="st20" points="209.3,364.6 209.3,330.4 190.9,354.3 "/>
<polygon class="st19" points="186.3,343.1 209.3,355.9 232.2,343.1 209.3,313.2 "/>
<polygon class="st6" points="186.3,343.1 209.3,355.9 209.3,313.2 "/>
<polygon class="st21" points="216.9,385.8 209.3,390.1 209.3,398.6 216.9,394.3 "/>
<polygon class="st17" points="438.8,279.1 431.1,274.9 431.1,249.3 438.8,253.5 "/>
<polygon class="st18" points="446.4,274.9 438.8,279.1 438.8,253.5 446.4,249.3 "/>
<polygon class="st19" points="415.8,249.3 438.8,262.1 461.7,249.3 438.8,219.4 "/>
<polygon class="st10" points="438.8,253.5 438.8,219.3 457.2,243.2 "/>
<polygon class="st6" points="415.8,249.3 438.8,262.1 438.8,219.4 "/>
<polygon class="st20" points="438.8,253.5 438.8,219.3 420.4,243.2 "/>
<polygon class="st19" points="415.8,232.1 438.8,244.9 461.7,232.1 438.8,202.2 "/>
<polygon class="st6" points="415.8,232.1 438.8,244.9 438.8,202.2 "/>
<polygon class="st10" points="438.8,236.5 438.8,202.2 457.2,226.2 "/>
<polygon class="st20" points="438.8,236.6 438.8,202.4 420.4,226.3 "/>
<polygon class="st19" points="415.8,215.1 438.8,227.9 461.7,215.1 438.8,185.2 "/>
<polygon class="st6" points="415.8,215.1 438.8,227.9 438.8,185.2 "/>
<polygon class="st21" points="446.4,257.8 438.8,262.1 438.8,270.6 446.4,266.3 "/>
<rect class="st22" width="480" height="480"/>
<polygon class="st10" points="155.7,377.4 140.5,368.8 148.1,364.6 155.8,368.8 "/>
<polygon class="st10" points="385.1,249 369.8,240.5 377.5,236.2 385.1,240.5 "/>
<polygon class="st10" points="201.7,403 186.4,394.4 194,390.2 201.7,394.4 "/>
<polygon class="st10" points="431.2,274.9 415.9,266.4 423.5,262.1 431.2,266.4 "/>
</svg>
